<?xml version="1.0" standalone="no"?>
<!DOCTYPE svg PUBLIC "-//W3C//DTD SVG 20010904//EN"
 "http://www.w3.org/TR/2001/REC-SVG-20010904/DTD/svg10.dtd">
<svg version="1.0" xmlns="http://www.w3.org/2000/svg"
 width="212.000000pt" height="238.000000pt" viewBox="0 0 212.000000 238.000000"
 preserveAspectRatio="xMidYMid meet">

<g transform="translate(0.000000,238.000000) scale(0.100000,-0.100000)"
fill="#DE1717" stroke="none">
<path d="M820 2362 c-41 -20 -70 -71 -70 -124 l0 -38 -335 0 c-352 0 -383 -3
-399 -45 -3 -9 -6 -77 -6 -151 l0 -134 26 -10 c35 -14 2013 -14 2048 0 l26 10
0 137 c-1 93 -5 143 -13 154 -28 37 -49 39 -385 39 l-329 0 -6 52 c-8 63 -32
99 -78 115 -22 8 -107 12 -239 12 -176 1 -210 -2 -240 -17z"/>
<path d="M195 1721 c-48 -12 -71 -28 -85 -60 -10 -25 -1 -149 60 -793 40 -420
79 -777 86 -795 7 -17 25 -40 40 -50 27 -17 68 -18 770 -18 811 0 779 -2 808
59 14 31 156 1432 156 1544 0 66 -28 100 -90 113 -54 10 -1702 10 -1745 0z
m478 -431 c20 -23 27 -41 27 -73 0 -23 9 -198 20 -389 21 -378 21 -387 -31
-414 -53 -27 -117 -7 -137 43 -6 15 -20 200 -32 410 -22 417 -22 419 34 448
42 21 85 12 119 -25z m457 5 l25 -25 3 -401 3 -400 -35 -35 c-22 -22 -44 -34
-60 -34 -35 0 -83 25 -96 49 -14 28 -14 805 1 832 15 28 68 50 104 44 17 -3
41 -17 55 -30z m467 9 c13 -8 26 -27 30 -42 3 -15 -3 -202 -14 -416 l-21 -388
-26 -27 c-39 -38 -108 -37 -142 2 -30 35 -30 40 -4 489 11 196 23 346 30 358
25 46 96 58 147 24z"/>
</g>
</svg>
