<svg width="60" height="11" viewBox="0 0 60 11" fill="none" xmlns="http://www.w3.org/2000/svg">
<path d="M8.976 10H6.408L4.488 6.856L2.664 10H0.132L3.24 5.272L0.492 1.12H3.06L4.584 3.652L6.06 1.12H8.616L5.904 5.32L8.976 10ZM11.4215 10H8.46947V1.12H11.3135C11.9495 1.12 12.4175 1.156 12.7295 1.228C13.7375 1.456 14.5775 2.236 14.5775 3.436C14.5775 4.192 14.2175 4.864 13.5455 5.236C14.5175 5.572 15.0095 6.28 15.0095 7.3C15.0095 8.152 14.6495 8.932 13.9775 9.4C13.2815 9.892 12.8255 10 11.4215 10ZM10.6415 4.492H11.5415C12.1055 4.492 12.4055 4.252 12.4055 3.784C12.4055 3.316 12.1175 3.112 11.5535 3.112H10.6415V4.492ZM10.6415 8.008H11.8055C12.4415 8.008 12.8375 7.732 12.8375 7.156C12.8375 6.64 12.4895 6.388 11.8175 6.388H10.6415V8.008ZM22.971 10H20.403L18.483 6.856L16.659 10H14.127L17.235 5.272L14.487 1.12H17.055L18.579 3.652L20.055 1.12H22.611L19.899 5.32L22.971 10ZM27.4205 10H22.5245V1.12H24.7925V8.008H27.4205V10ZM31.1589 10.168C28.6869 10.168 26.3709 8.392 26.3709 5.764C26.3709 3.016 28.3509 0.952 31.0509 0.952C33.6429 0.952 35.7429 2.956 35.7429 5.5C35.7429 8.128 33.7029 10.168 31.1589 10.168ZM31.0869 8.176C32.4909 8.176 33.4749 6.988 33.4749 5.572C33.4749 4.18 32.4789 2.944 31.0509 2.944C29.6349 2.944 28.6389 4.132 28.6389 5.536C28.6389 7 29.6349 8.176 31.0869 8.176ZM38.474 10H35.522V1.12H38.366C39.002 1.12 39.47 1.156 39.782 1.228C40.79 1.456 41.63 2.236 41.63 3.436C41.63 4.192 41.27 4.864 40.598 5.236C41.57 5.572 42.062 6.28 42.062 7.3C42.062 8.152 41.702 8.932 41.03 9.4C40.334 9.892 39.878 10 38.474 10ZM37.694 4.492H38.594C39.158 4.492 39.458 4.252 39.458 3.784C39.458 3.316 39.17 3.112 38.606 3.112H37.694V4.492ZM37.694 8.008H38.858C39.494 8.008 39.89 7.732 39.89 7.156C39.89 6.64 39.542 6.388 38.87 6.388H37.694V8.008ZM46.2555 10.168C43.7835 10.168 41.4675 8.392 41.4675 5.764C41.4675 3.016 43.4475 0.952 46.1475 0.952C48.7395 0.952 50.8395 2.956 50.8395 5.5C50.8395 8.128 48.7995 10.168 46.2555 10.168ZM46.1835 8.176C47.5875 8.176 48.5715 6.988 48.5715 5.572C48.5715 4.18 47.5755 2.944 46.1475 2.944C44.7315 2.944 43.7355 4.132 43.7355 5.536C43.7355 7 44.7315 8.176 46.1835 8.176ZM59.6905 4.948V5.452C59.6905 7.84 57.9385 10.18 54.9505 10.18C52.3225 10.18 50.2345 8.128 50.2345 5.524C50.2345 2.836 52.4065 0.952 54.9865 0.952C56.9905 0.952 58.9225 2.308 59.4265 4.096H56.8825C56.4625 3.364 55.7785 2.944 54.9265 2.944C53.4985 2.944 52.5025 4.096 52.5025 5.524C52.5025 7 53.4385 8.188 54.9385 8.188C55.9945 8.188 56.7865 7.672 57.0625 6.76H54.4105V4.948H59.6905Z" fill="#F6F6F6"/>
</svg>
